<?xml version="1.0" encoding="UTF-8"?>
<svg id="Lag_1" data-name="Lag 1" xmlns="http://www.w3.org/2000/svg" viewBox="0 0 499.29 90.43">
  <path d="M145.02,74.75c-.43-.08-.59-.34-.78-.54-10.24-10.24-20.48-20.48-30.73-30.71-.27-.27-.51-.82-.94-.63-.34,.15-.15,.69-.15,1.06,0,9.55,0,19.1,0,28.65,0,1.33,0,1.34-1.32,1.34-2.15,0-4.3-.02-6.45,.01-.79,.01-1.05-.3-1.04-1.07,.01-17.11,.01-34.21,.01-51.32,0-.18,.03-.37,.05-.6,.45,.01,.63,.35,.85,.57,10.24,10.23,20.48,20.47,30.72,30.7,.23,.23,.44,.68,.82,.51,.35-.16,.18-.63,.18-.96,0-9.71,0-19.42,0-29.12q0-1.39,1.35-1.4c2.12,0,4.24,.03,6.36-.01,.82-.02,1.11,.26,1.11,1.09-.02,17.27-.01,34.53-.01,51.8,0,.19-.02,.37-.03,.63Z"/>
  <path d="M158.44,47.54c0-8.32,0-16.63,0-24.95,0-1.33,0-1.34,1.32-1.34,10.18,0,20.36,0,30.55,0,1.27,0,1.33,.06,1.34,1.34,0,2.12-.04,4.24,.02,6.36,.02,.92-.28,1.19-1.19,1.19-7.21-.03-14.42-.02-21.63-.02-1.56,0-1.56,0-1.56,1.57,0,3.42,.03,6.83-.02,10.25-.01,.92,.3,1.18,1.2,1.17,5.31-.04,10.62-.02,15.94-.02,1.2,0,1.25,.06,1.26,1.22,0,2.18-.04,4.36,.02,6.55,.02,.93-.31,1.21-1.21,1.21-5.28-.03-10.56-.02-15.84-.02-1.33,0-1.34,0-1.34,1.29,0,3.54,.03,7.08-.02,10.62-.01,.92,.3,1.18,1.2,1.17,7.3-.03,14.61-.02,21.91-.02q1.27,0,1.27,1.26c0,2.18-.03,4.36,.01,6.55,.02,.8-.27,1.02-1.05,1.02-10.31-.02-20.62-.01-30.93-.02-1.2,0-1.24-.04-1.24-1.23,0-8.38,0-16.76,0-25.14Z"/>
  <path d="M69.92,21.44c.58,1.31,1.06,2.4,1.54,3.49,7.04,15.99,14.09,31.97,21.13,47.96,.44,1,.42,1.03-.7,1.03-2.47,0-4.93-.04-7.4,.02-.88,.02-1.3-.31-1.62-1.09-.73-1.78-1.56-3.52-2.32-5.29-.25-.59-.59-.87-1.28-.87-6.58,.02-13.15,.02-19.73,0-.62,0-.98,.2-1.24,.78-.84,1.87-1.76,3.71-2.59,5.59-.29,.65-.68,.88-1.38,.87-2.53-.03-5.06,0-7.59-.01-1.17,0-1.19-.03-.7-1.07,6.51-14.05,13.02-28.09,19.52-42.14,1.25-2.69,2.5-5.39,3.75-8.08,.14-.31,.3-.61,.59-1.18Zm-.19,21.6c-.21,.3-.32,.41-.38,.55-2.07,4.47-4.14,8.95-6.22,13.42-.38,.81,.11,.84,.68,.84,3.79,0,7.59-.01,11.38,0,.86,0,.95-.31,.62-1.02-.98-2.16-1.91-4.34-2.87-6.51-1.04-2.37-2.09-4.73-3.22-7.28Z"/>
  <path d="M23.49,74.79c-.32-.16-.36-.51-.49-.78C15.44,56.94,7.88,39.87,.32,22.79q-.52-1.17,.79-1.17c2.4,0,4.81,.03,7.21-.02,.8-.02,1.17,.28,1.49,.99,4.34,9.79,8.71,19.57,13.08,29.35,.16,.35,.2,.96,.63,.94,.41-.02,.45-.62,.61-.98,4.31-9.7,8.62-19.41,12.89-29.12,.37-.83,.8-1.21,1.76-1.18,2.37,.07,4.74,.02,7.11,.02,1.28,0,1.3,.02,.79,1.18-4.04,9.13-8.09,18.26-12.13,27.39-3.52,7.94-7.03,15.89-10.56,23.83-.12,.27-.15,.62-.49,.77Z"/>
  <path d="M378.26,73.91c-5.15,0-10.31,0-15.46,0-1.3,0-1.32-.02-1.32-1.34,0-3.83,0-7.65,0-11.48,0-1.43,0-1.44-1.39-1.44-6.17,0-12.33,.02-18.5-.02-.88,0-1.35,.26-1.72,1.07-1.85,4.09-3.79,8.13-5.65,12.21-.34,.74-.77,1.08-1.59,1-.5-.05-1.01,0-1.52,0-1.08-.01-1.14-.1-.7-1.06,1.15-2.5,2.31-4.99,3.46-7.48,6.56-14.16,13.12-28.33,19.66-42.5,.34-.73,.75-1.04,1.57-1.03,12.93,.02,25.86,.02,38.8,0,.89,0,1.25,.28,1.24,1.2-.03,2.64,.13,2.33-2.27,2.33-8.79,0-17.58,0-26.37,0-1.52,0-1.52,0-1.52,1.49,0,6.01,0,12.02,0,18.02,0,1.23,0,1.24,1.26,1.24,6.86,0,13.72,0,20.58,0q1.55,0,1.56,1.5,.01,2-2,2c-6.64,0-13.28,0-19.92,0-1.48,0-1.48,0-1.48,1.44,0,6.04,0,12.08,0,18.12,0,1.34,0,1.35,1.38,1.35,9.07,0,18.15,0,27.22,0,1.54,0,1.54,0,1.55,1.52,0,.25-.02,.51,0,.76,.06,.82-.31,1.1-1.13,1.1-5.25-.02-10.5-.01-15.75-.01Zm-16.79-33.18c0-4.74-.02-9.48,.01-14.22,0-.87-.31-1.19-1.16-1.15-1.04,.05-2.09,.04-3.13,0-.68-.02-1.08,.22-1.38,.87-4.43,9.61-8.88,19.21-13.33,28.81-.47,1.02-.42,1.1,.73,1.1,5.66,0,11.32,0,16.97,0,1.24,0,1.27-.04,1.28-1.28,0-4.71,0-9.42,0-14.13Z"/>
  <path d="M409.86,47.84c0-8.19,0-16.38,0-24.57,0-1.39,.03-1.42,1.45-1.42,5.41,0,10.81-.02,16.22,0,4.61,.02,8.9,1.11,12.5,4.17,3.53,2.99,5.55,6.78,5.16,11.47-.43,5.16-3.3,8.84-7.73,11.34-2.94,1.66-6.17,2.17-9.5,2.18-.43,0-1.05-.16-1.23,.25-.17,.4,.38,.74,.65,1.07,5.66,6.88,11.34,13.76,17.01,20.64,.19,.23,.59,.42,.41,.78-.17,.34-.57,.13-.87,.18-2.4,.43-3.94-.58-5.46-2.5-6.08-7.64-12.37-15.12-18.57-22.66-.19-.23-.58-.45-.44-.77,.14-.34,.57-.17,.86-.17,3.35-.03,6.7,.09,10.03-.36,3.11-.43,5.92-1.45,8.2-3.74,4.74-4.76,4.2-11.55-1.25-15.5-2.68-1.94-5.7-2.84-8.97-2.88-4.62-.05-9.23-.01-13.85-.01-1.25,0-1.27,.01-1.27,1.28,0,11.03,0,22.07,0,33.1,0,4.33,0,8.66,0,12.99,0,1.18-.05,1.22-1.25,1.22-2.31,0-2.1,.2-2.11-2.08,0-8,0-16,0-24Z"/>
  <path d="M247.31,21.23c5.33,.14,10.43,1.65,14.57,5.66,1.62,1.57,2.76,3.43,3.37,5.63,.15,.56,.06,.9-.45,1.16-.64,.33-1.27,.7-1.9,1.06-.43,.25-.71,.21-.81-.34-.65-3.61-2.96-6.01-6.06-7.56-6.14-3.08-12.37-2.97-18.47,.19-2.07,1.08-3.79,2.64-4.91,4.75-1.3,2.45-1.29,4.93,.14,7.32,2.25,3.78,5.64,5.82,9.98,6.46,3.65,.54,7.34,.81,10.94,1.69,3.29,.8,6.13,2.39,8.43,4.85,4.99,5.32,4.55,12.83-1.05,17.62-3.4,2.9-7.42,4.36-11.85,4.76-4.86,.44-9.45-.41-13.69-2.85-3.22-1.86-5.67-4.41-6.84-8.05-.25-.78-.2-1.31,.63-1.66,.61-.26,1.16-.64,1.75-.95,.35-.19,.62-.14,.68,.31,.62,4.08,3.38,6.5,6.84,8,6.9,2.98,13.62,2.58,19.81-1.97,1.96-1.44,3.3-3.4,3.65-5.89,.48-3.44-1.13-5.96-3.64-8.07-2.4-2.02-5.32-2.68-8.3-3.17-3.64-.6-7.35-.85-10.9-1.91-3.69-1.1-6.78-3.13-8.93-6.37-3.55-5.36-2.37-11.86,2.87-16.05,4.04-3.23,8.75-4.53,14.14-4.61Z"/>
  <path d="M463.14,63.6c.62-.82,1.18-1.54,1.71-2.28,9.35-12.86,18.7-25.71,28.04-38.58,.46-.63,.96-.93,1.73-.9,1,.04,2.01,.01,3.15,.01-.56,1.1-1.26,1.9-1.89,2.76-5.58,7.66-11.17,15.33-16.79,22.96-.6,.81-.6,1.33,.05,2.1,5.91,6.96,11.79,13.96,17.67,20.94,.73,.87,1.47,1.74,2.19,2.61,.13,.16,.39,.33,.22,.56-.08,.11-.34,.1-.52,.13-.06,.01-.13,0-.19,0q-3.47,.08-5.76-2.66c-5.16-6.15-10.32-12.3-15.5-18.44-1.13-1.34-.91-1.3-1.93,.09-4.98,6.81-9.95,13.64-14.92,20.45-.22,.3-.46,.59-.72,.93-.32-.34-.21-.7-.21-1.02,0-16.63,0-33.26,0-49.89,0-1.53,0-1.52,1.5-1.53,2.1-.01,1.92-.05,1.92,1.89,0,12.84,0,25.67,0,38.51,0,.39-.12,.81,.23,1.35Z"/>
  <path d="M300.66,49.65c0,7.62,0,15.24,0,22.86,0,1.39,0,1.4-1.35,1.4-2.42,0-2.14,.17-2.14-2.13,0-14.93,0-29.85,0-44.78,0-1.61,0-1.62-1.61-1.62-5.88,0-11.76,0-17.65,0-1.45,0-1.47-.03-1.48-1.5q-.01-2.02,2-2.02c13.76,0,27.51,0,41.27,0q1.64,0,1.64,1.6,0,1.92-1.89,1.92c-5.79,0-11.57,0-17.36,0-1.42,0-1.42,.01-1.42,1.41,0,7.62,0,15.24,0,22.86Z"/>
  <path d="M212.05,45.19c0,14.42,0,28.83,0,43.25,0,1.25-.36,1.84-1.18,1.97-.86,.14-1.56-.37-1.7-1.24-.05-.31-.03-.63-.03-.95,0-28.64,0-57.29,0-85.93,0-.35-.03-.71,.04-1.04C209.34,.49,209.78,0,210.61,0c.76,0,1.34,.55,1.42,1.37,.03,.34,.01,.69,.01,1.04,0,14.26,0,28.52,0,42.78Z"/>
</svg>